<svg xmlns="http://www.w3.org/2000/svg" xmlns:xlink="http://www.w3.org/1999/xlink" viewBox="0 0 188.149 188.149"><defs><circle id="A" cx="94.074" cy="94.075" r="94.074"/></defs><use xlink:href="#A" fill="#e6e7e2"/><clipPath id="B"><use xlink:href="#A"/></clipPath><path d="M126.708 153.946h-.02c-2.04-1.545-4.178-2.92-6.43-4.16-.058-.038-.115-.076-.2-.095-10.646-5.876-17.857-17.2-17.857-30.24l-16.12-.077c0 13.07-7.27 24.46-18 30.315 0 0-.02 0-.038.02a56.2 56.2 0 0 0-6.506 4.159C48.18 163.8 39.54 179.7 39.54 197.635H148.6c.001-17.895-8.603-33.75-21.9-43.7z" clip-path="url(#B)" fill="#ecc19c"/><path d="M148.6 197.63H39.538c0-17.934 8.642-33.826 21.997-43.766a56.27 56.27 0 0 1 6.505-4.159c.02-.02.04-.02.04-.02 1.755-.973 3.434-2.08 4.98-3.34 5.342 5.476 12.802 8.872 21.063 8.872 8.242 0 15.683-3.396 21.024-8.853 1.526 1.26 3.187 2.366 4.922 3.32a.6.6 0 0 1 .191.095 52.92 52.92 0 0 1 6.43 4.16h.02c13.298 9.94 21.902 25.794 21.902 43.7z" clip-path="url(#B)" fill="#168ef7"/><path d="M52.217 38.1v42.836c0 28.976 25.437 52.465 41.858 52.465s41.858-23.5 41.858-52.465V38.1H52.217z" clip-path="url(#B)" fill="#ecc19c"/><path d="M129.114 30.207C120 18.784 106.142 11.48 90.65 11.48c-27.52 0-49.8 22.972-49.8 51.3 0 15.036 6.267 28.556 16.274 37.932-2.578-6.47-4.018-13.722-4.018-21.38 0-12.307 3.74-23.578 9.957-32.246 6.596 2.932 17.286 3.993 29 2.376 11.625-1.592 21.53-5.433 27.116-10.007 10.185 8.996 16.806 23.502 16.806 39.877 0 8.4-1.72 16.275-4.802 23.2 9.83-4.07 17.058-18.574 17.058-35.835 0-18.473-8.3-33.7-19.13-36.5z" clip-path="url(#B)" fill="#494846"/></svg>