<svg xmlns="http://www.w3.org/2000/svg" xmlns:xlink="http://www.w3.org/1999/xlink" viewBox="0 0 188.148 188.148"><style><![CDATA[.B{clip-path:url(#B)}]]></style><defs><circle id="A" cx="94.074" cy="94.074" r="94.074"/></defs><use xlink:href="#A" fill="#eb6d4a"/><clipPath id="B"><use xlink:href="#A"/></clipPath><g fill="#ecc19c"><path d="M135.938 52.784l-.02 32.623-.154 2.796-.093.956-.555 3.928-.258 1.275a1.8 1.8 0 0 1-.051.257l-.442 1.954-.164.586-.72 2.488-.38 1.162c-.01.04-.03.082-.04.123l-.37 1.048-.124.32-.38.987-.483 1.183-.452 1.05c-.02.062-.052.113-.072.174l-.514 1.1-.556 1.142-1.172 2.23-.556.987c-1.583 2.725-3.34 5.285-5.253 7.65l-.802.987-1.162 1.357-1.06 1.162-3.023 3.013-.638.586-1.06.925-.854.72-2.23 1.737-.946.68-1.563 1.06-.885.555-3.156 1.758-.77.38-.802.37-1.018.432a3.2 3.2 0 0 1-.401.154l-1.213.452-1.52.483-1.06.277c-.02.01-.04.02-.072.02l-1.05.226-.277.05-.864.134-1.233.134c-.143.02-.277.03-.422.03l-.977.03h-.03a14.51 14.51 0 0 1-.956-.031 2.21 2.21 0 0 1-.371-.031 9.29 9.29 0 0 1-.894-.083c-.062 0-.134-.01-.195-.02l-1.152-.185-.997-.206c-1.758-.4-3.567-1.007-5.397-1.82a39.44 39.44 0 0 1-4.72-2.488l-2.365-1.542-1.172-.843-3.63-2.92-.986-.905-.977-.904-2.345-2.406-.895-.987-2.385-2.88-.854-1.1-2.95-4.308-.73-1.213-.843-1.47a55.96 55.96 0 0 1-2.797-5.758l-.35-.863-.442-1.12-.586-1.635-.534-1.655-.463-1.614-.452-1.758-.04-.185-.524-2.498-.494-3.383-.113-1.08-.092-1.13-.104-2.087-.02-1.357V52.784c0-23.102 18.723-41.834 41.825-41.855h.04c3.188 0 6.292.36 9.273 1.028 2.725.617 5.347 1.5 7.835 2.622 3.393 1.522 6.55 3.475 9.387 5.8 2.385 1.954 4.555 4.154 6.446 6.58 5.586 7.115 8.917 16.07 8.917 25.816z" class="B"/><path d="M148.613 200.74v.01H39.538v-.01c0-6.158 1.018-12.1 2.9-17.612.34-.997.7-1.984 1.1-2.96v-.01c.4-.977.822-1.933 1.274-2.88 1.8-3.794 4.04-7.34 6.642-10.6.658-.812 1.326-1.604 2.016-2.365.34-.4.7-.77 1.06-1.15l1.1-1.1c1.84-1.84 3.814-3.526 5.892-5.08a63.08 63.08 0 0 1 3.177-2.2 60.18 60.18 0 0 1 3.331-1.964c.02-.02.04-.02.04-.02a23.92 23.92 0 0 0 1.306-.76 31.16 31.16 0 0 0 2.499-1.665c.4-.288.802-.586 1.192-.905a36.2 36.2 0 0 0 2.673-2.365l.833-.843c.575-.597 1.12-1.224 1.645-1.86a20.21 20.21 0 0 0 .751-.946c.247-.318.483-.647.72-.977a34.21 34.21 0 0 0 4.38-8.35c1.306-3.64 2.015-7.557 2.015-11.65l16.12.082a34.44 34.44 0 0 0 1.964 11.515 34.31 34.31 0 0 0 4.329 8.359 34.48 34.48 0 0 0 6.63 7.042 25.45 25.45 0 0 0 1.142.884c.37.278.75.545 1.14.802a3.39 3.39 0 0 0 .237.165c.37.247.74.494 1.13.72.42.257.854.514 1.285.75.07.02.134.05.185.093.905.504 1.8 1.028 2.674 1.573a18.73 18.73 0 0 1 1.254.823c.854.555 1.687 1.14 2.498 1.758l.02.01a55.05 55.05 0 0 1 5.881 5.079c9.908 9.87 16.025 23.502 16.025 38.595z" class="B"/></g><path d="M148.614 200.743H39.54c0-6.16 1.02-12.1 2.9-17.612a50.96 50.96 0 0 1 1.11-2.961c.4-.988.822-1.944 1.274-2.9 1.8-3.794 4.04-7.34 6.642-10.6.658-.813 1.327-1.604 2.016-2.365.34-.4.7-.77 1.06-1.15l1.1-1.1c1.84-1.84 3.814-3.527 5.892-5.08a63.08 63.08 0 0 1 3.177-2.2c1.1-.7 2.2-1.357 3.33-1.974.02-.02.04-.01.04-.01v-.01l1.306-.75c1.285-.78 2.52-1.645 3.67-2.6l.02.02c5.325 5.45 12.738 8.83 20.964 8.852h.082c8.225 0 15.67-3.393 21.015-8.842l.01-.01c.73.606 1.5 1.172 2.272 1.696.082.06.154.113.236.164.37.247.75.483 1.13.72.422.257.854.504 1.285.74.072.02.123.06.185.092.905.504 1.8 1.028 2.674 1.583a18.73 18.73 0 0 1 1.254.823c.854.545 1.687 1.14 2.498 1.758h.02a54.45 54.45 0 0 1 5.88 5.09c9.9 9.872 16.026 23.505 16.026 38.598z" fill="#c7d4e2" class="B"/><g fill="#543e36"><path d="M135.938 84.05l-.02 1.357-.154 2.796-.093.956-.555 3.928-.258 1.275a1.8 1.8 0 0 1-.051.257l-.288 1.275-.186.72a4.61 4.61 0 0 1-.133.545l-.72 2.488-.38 1.162c-.01.04-.03.082-.04.123l-.37 1.048-.124.32-.38.987-.483 1.183-.452 1.05c-.02.062-.052.113-.072.174l-.514 1.1-.556 1.142-1.172 2.23-.556.987c-1.583 2.725-3.34 5.285-5.253 7.65l-.802.987-1.162 1.357-1.06 1.162-3.023 3.013-.638.586-1.06.925-.854.72-2.23 1.737-.946.68-1.563 1.06-.885.555-3.156 1.758-.77.38-.802.37-1.018.432a3.2 3.2 0 0 1-.401.154l-1.213.452-1.52.483-1.06.277c-.02.01-.04.02-.072.02l-1.05.226-.277.05-.864.134-1.233.134c-.143.02-.277.03-.422.03l-.977.03h-.03a14.51 14.51 0 0 1-.956-.031 2.21 2.21 0 0 1-.371-.031 9.29 9.29 0 0 1-.894-.083c-.062 0-.134-.01-.195-.02l-1.152-.185-.997-.206c-1.758-.4-3.567-1.007-5.397-1.82a39.44 39.44 0 0 1-4.72-2.488l-2.365-1.542-1.172-.843-3.63-2.92-.986-.905-.977-.904-2.345-2.406-.895-.987-2.385-2.88-.854-1.1-2.95-4.308-.73-1.213-.843-1.47a55.96 55.96 0 0 1-2.797-5.758l-.35-.863-.442-1.12-.586-1.635-.534-1.655-.463-1.614-.452-1.758-.04-.185-.524-2.498-.494-3.383-.113-1.08-.092-1.13-.104-2.087-.02-1.357L58.9 97.2l11.484 5.007 54.152 4.885 11.405-23.03zm-8.915-57.082a57.24 57.24 0 0 1-7.855 12.852l-.565.68c-6.446 7.762-14.897 13.798-24.562 17.324a56.01 56.01 0 0 1-7.855 2.262 60.05 60.05 0 0 1-5.49.895 59.52 59.52 0 0 1-6.528.36c-2.53 0-5.007-.165-7.443-.483-2.386-.298-4.72-.74-7.002-1.336a53.17 53.17 0 0 1-3.846-1.131c-1.244-.4-2.457-.864-3.66-1.357v-4.246c0-23.102 18.723-41.834 41.825-41.855h.04c3.188 0 6.292.36 9.273 1.028 2.725.617 5.347 1.5 7.835 2.622 3.393 1.522 6.55 3.475 9.387 5.8 2.384 1.95 4.554 4.15 6.445 6.577z" class="B"/><path d="M135.938 52.784v8.235c-7.136-5.52-13.047-12.502-17.314-20.48-.01-.01-.01-.03-.02-.04a63.77 63.77 0 0 1-7.412-25.92c3.393 1.522 6.55 3.475 9.387 5.8 2.385 1.954 4.555 4.154 6.446 6.58a41.66 41.66 0 0 1 8.914 25.817zm-78.818 3.23l-1.244 2.375-.462.987C53.4 63.878 52.37 68.3 52.226 72.3c0 .113-.01.236-.01.35V56.517l.02-1.697 4.884 1.193z" class="B"/><path d="M131.054 56.013l1.7 3.36c2.088 4.643 3.1 9.178 3.198 13.268V56.5l-.02-1.688-4.887 1.2z" class="B"/></g><path d="M130.972 60.167c0-.175-.134-.33-.3-.35a112.07 112.07 0 0 0-15.31-1.142c-8.133 0-18.63 2.55-20.46 2.55H93.27c-.854 0-3.588-.555-7.084-1.14-4.02-.68-9.037-1.4-13.376-1.4-5.243 0-10.22.494-13.088.843a64.5 64.5 0 0 0-2.221.298c-.175.02-.3.175-.3.35l-.082 4.37a.38.38 0 0 0 .236.35l.493.175c.73.278.67 13.448 4.596 16.738 2.334 1.943 4.4 3.053 13.16 3.053 5.07 0 8.256-1.367 11.28-5.45 2.18-2.93 4.112-9.86 4.112-9.86.586-2.858 2.714-3.084 3.054-3.105h.04c.07 0 2.468.04 3.095 3.105 0 0 1.933 6.93 4.112 9.86 3.022 4.082 6.2 5.45 11.278 5.45 8.75 0 10.826-1.1 13.16-3.053 3.928-3.3 3.866-16.46 4.596-16.738l.494-.175a.38.38 0 0 0 .236-.35l-.08-4.368zM86.875 75.753c-1.285 3.043-4.606 6.97-9.284 7.207-14.034.7-14.682-3.208-15.587-6.313-.915-3.105-1.15-5.83-.792-8.935.37-3.105 1.152-4.925 2.56-5.84.606-.4 1.265-.76 2.95-1.018 1.5-.226 3.845-.36 7.73-.36 2.25 0 4.36.175 6.24.483 4.997.802 8.37 2.5 8.37 4.174 0 1.143-.288 6.098-2.2 10.602zm39.284.894c-.904 3.105-1.552 7.022-15.586 6.313-4.678-.236-8-4.164-9.284-7.207-1.902-4.503-2.2-9.46-2.2-10.6 0-2.303 6.395-4.658 14.6-4.658s9.53.617 10.683 1.378c1.408.915 2.2 2.735 2.56 5.84s.123 5.83-.793 8.934z" fill="#1a1a1a" class="B"/><g fill="#543e36" class="B"><path d="M94.123 90.65l-.042 25.724h-.01l-.03-.02L53.604 95.77l-.04-.185-.524-2.498-.494-3.383-.113-1.08-.092-1.13-.104-2.087-.02-1.357V71.764l.01.524c.082 2.97.555 6.24 1.47 9.582.7 2.57 1.594 4.945 2.622 7.063v.01c2.694 5.604 6.303 9.407 9.623 10.024.206.03.422.05.628.072a36.15 36.15 0 0 0 4.02.226c5.243 0 9.9-4.215 12.83-5.922l.062-.03c.154-.093.3-.185.442-.278.04-.03.082-.05.123-.072 2.468-1.4 6.025-2.303 9.994-2.313h.082z"/><path d="M135.947 71.764l-.01 12.286c0 3.085-.288 6.107-.822 9.038l-.75 3.485-9.5 13.705-30.803 6.097-.03-25.727h.082c3.97.01 7.536.905 10.004 2.313a.76.76 0 0 1 .113.072c.144.093.298.185.452.278.01.01.03.02.05.03 2.94 1.707 7.588 5.925 12.832 5.925a36.13 36.13 0 0 0 4.019-.226c.216-.02.422-.04.638-.072 3.3-.617 6.93-4.42 9.613-10.024v-.01c1.027-2.118 1.912-4.493 2.62-7.063.926-3.393 1.4-6.703 1.47-9.716.01-.135.01-.26.01-.392z"/></g><ellipse cx="94.074" cy="103.955" rx="10.255" ry="3.17" fill="#ecc19c" class="B"/><path d="M64.13 155.174v56.558h-4.37v-53.37l1.77-1.378 2.6-1.8zm59.9.01v56.547h4.37v-53.36z" fill="#435363" class="B"/><g class="B"><g fill="#141720"><path d="M82.113 151.713l11.96 14.336 11.962-14.336z"/><path d="M94.074 225.437H87l5.1-65.8c.215.837 3.712.837 3.927 0l5.1 65.8h-7.074z"/></g><g fill="#e7ecf2"><path d="M94.07 151.638l-.03.05-.01.02-9.603 16.1-12.554-17.447 1.183-.915.02.02a34.2 34.2 0 0 0 6.621-6.991l14.373 9.15z"/><path d="M116.278 150.373l-12.554 17.447-9.655-16.182 14.436-9.2a34.48 34.48 0 0 0 6.63 7.042l1.142.884z"/></g></g></svg>