<svg xmlns="http://www.w3.org/2000/svg" xmlns:xlink="http://www.w3.org/1999/xlink" viewBox="0 0 188.148 188.148"><defs><circle id="A" cx="94.074" cy="94.074" r="94.074"/></defs><use xlink:href="#A" fill="#d4dce6"/><clipPath id="B"><use xlink:href="#A"/></clipPath><g clip-path="url(#B)"><path d="M149.56 97.76v87.412L38.8 183.288V95.876z" fill="#421800"/><g fill="#f0d0b4"><path d="M135.938 58.277v25.775l-.02 1.357-.042 1.1-.06.987-.05.7-.04.42-.083.78-.175 1.47c-.01.124-.03.247-.05.37l-.113.74v.03l-.186 1.07-.287 1.47c-.01.02-.01.04-.02.062l-.042.216c-.01.02-.01.04-.02.062l-.175.78c-.02.113-.04.227-.082.34-.03.185-.082.37-.123.555l-.093.32c-.02.093-.05.185-.072.268l-.72 2.488-.38 1.162c-.01.04-.03.082-.04.123l-.37 1.05-.124.32-.38.987-.483 1.183-.452 1.048c-.02.062-.052.113-.072.175l-.514 1.1-.556 1.14-1.172 2.23-.555.987a60.7 60.7 0 0 1-5.254 7.65l-.803.987-1.16 1.357-1.02 1.1c-.01.02-.02.03-.04.05l-3.022 3.013-.638.586-1.06.926-.853.72-2.23 1.737-.946.68-1.563 1.06-.885.556-3.156 1.758-.77.38-.803.37-1.018.432c-.134.062-.268.113-.4.154l-1.214.452-1.52.483-1.06.277c-.02.01-.042.02-.072.02l-1.05.227-.277.05-.864.134-1.233.134c-.143.02-.277.03-.422.03l-.966.03h-.04a15.29 15.29 0 0 1-.957-.03c-.123 0-.246-.01-.37-.03-.288-.01-.587-.04-.895-.082-.063 0-.134-.01-.195-.02l-1.152-.186-.997-.205c-1.758-.4-3.567-1.008-5.397-1.82-1.563-.688-3.146-1.52-4.72-2.487L77 130.092l-1.172-.843-3.63-2.92-.986-.904-.977-.905-2.2-2.272c-.052-.04-.093-.092-.134-.133l-.894-.987-2.385-2.88-.854-1.1-2.95-4.308-.73-1.213-.843-1.47a55.96 55.96 0 0 1-2.797-5.758l-.35-.864-.442-1.12-.586-1.635-.534-1.655-.463-1.614-.452-1.758-.042-.185-.523-2.498-.494-3.382-.113-1.08-.092-1.13-.104-2.087-.02-1.357V58.277c0-22.34 17.5-40.6 39.562-41.794.042-.01.072-.01.113-.01l.864-.03 1.326-.02a53.38 53.38 0 0 1 1.326.021l1.018.042h.03c2.354.133 4.668.462 6.898.966 2.725.617 5.347 1.5 7.834 2.622 3.394 1.52 6.55 3.475 9.388 5.8 2.385 1.954 4.555 4.154 6.446 6.58a41.58 41.58 0 0 1 8.903 25.446 3.83 3.83 0 0 1 .012.371z"/><path d="M148.615 200.745v.01H39.54v-.01c0-6.097.997-11.978 2.858-17.457.02-.052.03-.104.052-.154.34-.997.7-1.984 1.1-2.96v-.01c.4-.977.822-1.933 1.274-2.88 1.8-3.794 4.04-7.34 6.642-10.6.658-.812 1.327-1.604 2.016-2.364.34-.4.7-.77 1.06-1.15l1.1-1.1c1.84-1.84 3.814-3.526 5.892-5.08a63.08 63.08 0 0 1 3.177-2.2c.144-.092.288-.185.432-.267.4-.258.802-.504 1.214-.74a52.88 52.88 0 0 1 1.686-.957c.02-.02.04-.02.04-.02a23.92 23.92 0 0 0 1.306-.76 32.34 32.34 0 0 0 3.691-2.57 34.56 34.56 0 0 0 11-15.34c.638-1.8 1.14-3.65 1.48-5.56a34.87 34.87 0 0 0 .535-6.087l16.12.082c0 2.036.175 4.03.515 5.974.33 1.912.822 3.763 1.45 5.542 2.16 6.106 5.994 11.433 10.96 15.4a28.13 28.13 0 0 0 2.282 1.686 3.08 3.08 0 0 0 .237.165c.37.247.74.493 1.13.72a31.84 31.84 0 0 0 1.285.75.52.52 0 0 1 .185.093c.905.504 1.8 1.028 2.674 1.573a2.31 2.31 0 0 1 .205.134 16.02 16.02 0 0 1 1.049.689 37.22 37.22 0 0 1 2.498 1.759l.02.01a56.02 56.02 0 0 1 3.033 2.437c.987.843 1.933 1.728 2.848 2.643 5.902 5.87 10.456 13.088 13.17 21.14 1.848 5.475 2.856 11.346 2.856 17.452z"/></g><path d="M148.615 200.745H39.54c0-6.097.997-11.978 2.858-17.457.02-.052.03-.104.052-.154.34-.997.7-1.984 1.1-2.96v-.01c.4-.977.822-1.933 1.274-2.88 1.8-3.794 4.04-7.34 6.642-10.6.658-.812 1.327-1.604 2.016-2.364.34-.4.7-.77 1.06-1.15l1.1-1.1c1.84-1.84 3.814-3.526 5.892-5.08a63.08 63.08 0 0 1 3.177-2.2c.144-.092.288-.185.432-.267.4-.258.802-.504 1.214-.74.555-.34 1.12-.658 1.686-.967.02-.02.04-.01.04-.01v-.01l1.306-.75c1.285-.78 2.52-1.645 3.67-2.6l.02.02a29.3 29.3 0 0 0 20.964 8.853h.133c8.205-.01 15.628-3.403 20.964-8.842l.01-.01a27.68 27.68 0 0 0 2.271 1.696 3.08 3.08 0 0 0 .237.165c.37.247.75.483 1.13.72.42.257.854.504 1.285.74.07.02.123.062.185.093.905.503 1.8 1.027 2.674 1.583a2.31 2.31 0 0 1 .205.134 16.02 16.02 0 0 1 1.049.689 37.22 37.22 0 0 1 2.498 1.759h.02a52.19 52.19 0 0 1 3.033 2.446c.987.843 1.933 1.728 2.848 2.643 5.902 5.87 10.456 13.088 13.17 21.14a54.57 54.57 0 0 1 2.854 17.455z" fill="#b34fc5"/><path d="M149.798 170.583c-.072.03-.154.063-.237.072-5.407 1.408-26.73-24.288-26.947-51.225-.01-2.17.103-4.35.38-6.54.72-5.8 3.517-11.392 5.84-17.016 1.83-4.452 3.382-8.914 3.382-13.52 0-24.675-7.155-16.635-27.1-29.95a151.14 151.14 0 0 1-10.93-7.979c-7.412-5.88-9.294-7.988-19.462-7.988-12.935 0-18.075 22.464-19.545 32.067-1.583 10.333-1.604 27.08 4.843 43.027 4.995 12.356 4.996 24.47-4.843 37.928-3.7 5.05-9.346 22.105-16.368 27.605-2.2 1.717-4.503 2.314-6.94 1.07-19.186-9.818-7.64-41.33-1.882-61.06 6.2-21.23 8.07-42.75 12.574-64.187C47.632 28.75 68.297 14.036 76.646 20c2.786-4.997 10.076-6.868 17.53-6.868 5.46 0 11.022 1.018 14.97 2.55 30.484 11.834 31 40.087 32.623 51.838 1.337 9.706 6.117 18.774 7.793 28.356v.03c.36 2.015.576 4.07.587 6.148.07 11.217-1.183 18.805 7.34 28.15 6.466 7.084 1.52 36.338-7.7 40.378z" fill="#421800"/><g fill="#e7ecf2"><path d="M94.175 158.335l-.03.052-.01.02c-2.9 4.503-7.7 6.847-12.543 6.847a14.77 14.77 0 0 1-10.867-4.74l-5.583-5.983c.946-.607 1.912-1.173 2.9-1.707.02-.02.04-.01.04-.01v-.01l1.306-.75c1.285-.78 2.52-1.645 3.67-2.6l.02.02a29.3 29.3 0 0 0 20.964 8.853h.132z"/><path d="M123.138 154.613l-5.5 5.9a14.78 14.78 0 0 1-10.878 4.739c-4.832 0-9.644-2.344-12.533-6.847l-.01-.02-.042-.052c8.205-.01 15.628-3.403 20.964-8.842l.01-.01a27.68 27.68 0 0 0 2.271 1.696 3.08 3.08 0 0 0 .237.165c.37.247.75.483 1.13.72.42.257.854.504 1.285.74.07.02.123.062.185.093.905.503 1.8 1.027 2.674 1.583a2.77 2.77 0 0 1 .205.135z"/></g></g></svg>