<svg xmlns="http://www.w3.org/2000/svg" xmlns:xlink="http://www.w3.org/1999/xlink" viewBox="0 0 188.149 188.149"><style><![CDATA[.B{clip-path:url(#B)}]]></style><defs><circle id="A" cx="94.074" cy="94.074" r="94.074"/></defs><use xlink:href="#A" fill="#f3e4b2"/><clipPath id="B"><use xlink:href="#A"/></clipPath><g fill="#ecc19c"><path d="M135.973 52.784l-.02 32.622-.04 1.1-.062.987-.05.7-.042.422-.082.78-.175 1.47a4.63 4.63 0 0 1-.05.37l-.113.74v.03l-.185 1.07-.288 1.47c-.01.02-.01.042-.02.063l-.04.216c-.01.02-.01.04-.02.062l-.175.78a2 2 0 0 1-.082.34c-.03.185-.083.37-.123.555-.03.103-.05.216-.093.318l-.072.268-.72 2.488-.38 1.162c-.01.04-.03.082-.04.123l-.37 1.05-.123.318-.38.987-.483 1.183-.452 1.048c-.02.063-.05.113-.072.175l-.514 1.1-.555 1.142-1.172 2.23-.555.987a60.49 60.49 0 0 1-5.254 7.65l-.802.986-1.162 1.357-1.06 1.162-3.023 3.013-.637.586-1.06.925-.854.72-2.23 1.737-.946.68-1.563 1.06-.884.555-3.157 1.758-.77.38-.802.37-1.018.432c-.134.06-.267.113-.4.154l-1.213.452-1.52.483-1.06.277c-.02.01-.04.02-.072.02l-1.05.227-.277.052-.864.134-1.234.133a2.84 2.84 0 0 1-.421.031l-.977.03h-.03a15.28 15.28 0 0 1-.956-.03 2.2 2.2 0 0 1-.37-.031 9.3 9.3 0 0 1-.895-.082c-.06 0-.133-.01-.195-.02l-1.15-.185-.998-.206c-1.758-.4-3.567-1.008-5.397-1.82a39.73 39.73 0 0 1-4.72-2.488L77.04 130.1l-1.172-.844-3.63-2.92-.987-.904-.977-.905-2.344-2.405-.895-.987-2.385-2.88-.853-1.1-2.95-4.3-.73-1.213-.843-1.47c-1.028-1.85-1.974-3.773-2.796-5.758l-.35-.863-.442-1.12-.586-1.635-.535-1.655-.462-1.614-.453-1.758c-.01-.062-.03-.124-.04-.186l-.524-2.498-.493-3.383-.113-1.08-.093-1.13-.103-2.088-.02-1.356V52.784c0-23.103 18.722-41.835 41.824-41.855h.042a42.32 42.32 0 0 1 9.273 1.028 41.2 41.2 0 0 1 7.834 2.621c3.393 1.52 6.55 3.476 9.387 5.8 2.386 1.953 4.555 4.153 6.447 6.58a41.58 41.58 0 0 1 8.903 25.446c.01.123.01.246.01.37z" class="B"/><path d="M148.65 200.743v.01H39.575v-.01c0-6.16 1.018-12.1 2.9-17.612a50.52 50.52 0 0 1 1.111-2.961v-.01c.4-.977.822-1.933 1.274-2.878 1.8-3.794 4.04-7.342 6.642-10.6a55.52 55.52 0 0 1 2.015-2.365c.34-.4.7-.77 1.06-1.15l1.1-1.1c1.84-1.84 3.814-3.526 5.892-5.08a56.97 56.97 0 0 1 3.177-2.19 59.56 59.56 0 0 1 3.331-1.964c.02-.02.04-.02.04-.02a24.61 24.61 0 0 0 1.306-.761 32.24 32.24 0 0 0 3.69-2.57 34.65 34.65 0 0 0 11-15.34c1.306-3.64 2.015-7.557 2.015-11.65l16.12.083a34.44 34.44 0 0 0 1.964 11.515 34.43 34.43 0 0 0 10.96 15.401c.74.607 1.5 1.162 2.282 1.687a3.74 3.74 0 0 0 .237.164c.37.247.74.493 1.13.72.42.257.853.514 1.285.75a.51.51 0 0 1 .185.092 62.81 62.81 0 0 1 2.673 1.573c.422.257.843.524 1.254.822a37.76 37.76 0 0 1 2.499 1.759l.02.01a56.02 56.02 0 0 1 3.033 2.437 49.12 49.12 0 0 1 2.848 2.643c9.9 9.867 16.03 23.5 16.03 38.593z" class="B"/></g><path d="M148.646 200.74H39.572c0-6.16 1.018-12.092 2.9-17.612a51.98 51.98 0 0 1 1.11-2.961v-.01a48.38 48.38 0 0 1 1.275-2.879c1.8-3.793 4.04-7.34 6.642-10.6a56.87 56.87 0 0 1 2.015-2.364 35.61 35.61 0 0 1 1.059-1.151l1.1-1.1c1.84-1.84 3.814-3.526 5.9-5.08a56.27 56.27 0 0 1 3.177-2.19l1.706-1.048a50.27 50.27 0 0 1 1.625-.926c.02-.02.04-.01.04-.01v-.01l1.306-.75a31.76 31.76 0 0 0 3.67-2.591l.02.02c5.326 5.45 12.74 8.832 20.964 8.853h.083c8.225 0 15.668-3.393 21.015-8.842l.01-.01a27.65 27.65 0 0 0 2.272 1.697 4.19 4.19 0 0 0 .236.164c.37.247.75.483 1.13.72.42.257.854.504 1.285.74.072.02.124.062.185.093l1.45.832 1.224.75a18.85 18.85 0 0 1 1.254.822 37.48 37.48 0 0 1 2.498 1.759h.02a53.66 53.66 0 0 1 3.033 2.446c.987.844 1.933 1.728 2.848 2.643 9.9 9.87 16.027 23.502 16.027 38.596z" fill="#eb6d4a" class="B"/><g fill="#543e36"><path d="M135.973 84.05l-.02 1.356-.04 1.1-.062.987-.05.7-.042.422-.082.78-.175 1.47a4.63 4.63 0 0 1-.05.37l-.113.74-.185 1.1-.257 1.274a1.96 1.96 0 0 1-.052.258l-.04.216c-.01.02-.01.04-.02.062a.54.54 0 0 1-.02.134l-.154.647a2 2 0 0 1-.082.34 6.12 6.12 0 0 1-.154.596 1.23 1.23 0 0 1-.062.277l-.072.268-.72 2.488-.38 1.162c-.01.04-.03.082-.04.123l-.37 1.05-.123.318-.38.987-.483 1.183-.452 1.048c-.02.063-.05.113-.072.175l-.514 1.1-.555 1.142-1.172 2.23-.555.987a60.49 60.49 0 0 1-5.254 7.65l-.802.986-1.162 1.357-1.06 1.162-3.023 3.013-.637.586-1.06.925-.854.72-2.23 1.737-.946.68-1.563 1.06-.884.555-3.157 1.758-.77.38-.802.37-1.018.432c-.134.06-.267.113-.4.154l-1.213.452-1.52.483-1.06.277c-.02.01-.04.02-.072.02l-1.05.227-.277.052-.864.134-1.234.133a2.84 2.84 0 0 1-.421.031l-.977.03h-.03a15.28 15.28 0 0 1-.956-.03 2.2 2.2 0 0 1-.37-.031 9.3 9.3 0 0 1-.895-.082c-.06 0-.133-.01-.195-.02l-1.15-.185-.998-.206c-1.758-.4-3.567-1.008-5.397-1.82a39.73 39.73 0 0 1-4.72-2.488L77.04 130.1l-1.172-.844-3.63-2.92-.987-.904-.977-.905-2.344-2.405-.895-.987-2.385-2.88-.853-1.1-2.95-4.3-.73-1.213-.843-1.47c-1.028-1.85-1.974-3.773-2.796-5.758l-.35-.863-.442-1.12-.586-1.635-.535-1.655-.462-1.614-.453-1.758c-.01-.062-.03-.124-.04-.186l-.524-2.498-.493-3.383-.113-1.08-.093-1.13-.103-2.088-.02-1.356 6.683 13.14 11.484 5.007 54.15 4.883 11.404-23.03z" class="B"/><g class="B"><path d="M94.16 90.65l-.04 25.724h-.01l-.03-.02L53.64 95.77c-.01-.062-.03-.124-.04-.186l-.524-2.498-.493-3.383-.113-1.08-.093-1.13-.103-2.088-.02-1.356V71.764l.01.524c.082 2.97.555 6.24 1.47 9.582.7 2.57 1.593 4.945 2.622 7.063v.01c2.694 5.604 6.303 9.407 9.623 10.024a12.15 12.15 0 0 0 .627.072 36.15 36.15 0 0 0 4.02.226c5.244 0 9.9-4.215 12.83-5.922l.062-.03a9.27 9.27 0 0 0 .442-.278c.04-.03.082-.05.124-.07 2.467-1.4 6.025-2.304 9.993-2.313h.083z"/><path d="M135.98 71.76l-.01 12.286a50.39 50.39 0 0 1-.822 9.037l-.75 3.485-9.5 13.705-30.803 6.097-.03-25.728h.083c3.968.01 7.536.905 10.003 2.313a.67.67 0 0 1 .113.072c.144.092.298.185.453.277.01.01.03.02.05.03 2.94 1.706 7.587 5.925 12.83 5.925a36.15 36.15 0 0 0 4.02-.226 11.6 11.6 0 0 0 .637-.072c3.3-.617 6.93-4.42 9.613-10.024v-.01c1.028-2.118 1.912-4.493 2.622-7.063.925-3.394 1.4-6.704 1.47-9.716.01-.132.01-.256.01-.4z"/></g></g><ellipse cx="94.108" cy="103.95" rx="10.255" ry="3.171" fill="#ecc19c" class="B"/><path d="M94.116 10.93h-.04c-23.102.02-41.824 18.753-41.824 41.855V71.24s1.737-11.012 6.416-16.358c5.08-5.8 3.794-14.64 15.186-14.64 7.35 0 7.762 2.714 20.213 2.714h.06c12.45 0 12.862-2.714 20.213-2.714 11.392 0 10.106 8.83 15.186 14.64 4.678 5.346 6.415 16.358 6.415 16.358V52.784c-.001-23.102-18.723-41.835-41.825-41.855z" fill="#543e36" class="B"/><path d="M121.74 153.72l-1.13 1.152c-7.053 7.186-16.47 11.145-26.516 11.145-10.147-.02-19.545-4-26.567-11.165l-1.08-1.1a50.27 50.27 0 0 1 1.625-.926c.02-.02.04-.01.04-.01v-.01l1.306-.75a31.76 31.76 0 0 0 3.67-2.591l.02.02c5.326 5.45 12.74 8.832 20.964 8.853h.083c8.225 0 15.668-3.393 21.015-8.842l.01-.01a27.65 27.65 0 0 0 2.272 1.697 4.19 4.19 0 0 0 .236.164c.37.247.75.483 1.13.72.42.257.854.504 1.285.74.072.02.124.062.185.093.484.268.977.545 1.45.832z" fill="#c34628" class="B"/></svg>