<svg xmlns="http://www.w3.org/2000/svg" xmlns:xlink="http://www.w3.org/1999/xlink" viewBox="0 0 188.148 188.148"><defs><circle id="A" cx="94.074" cy="94.074" r="94.074"/></defs><use xlink:href="#A" fill="#b7dc78"/><clipPath id="B"><use xlink:href="#A"/></clipPath><g clip-path="url(#B)"><g fill="#141720"><path d="M58.416 149.355c0 3.98-1.573 7.402-3.825 8.842-.73.474-1.532.73-2.375.73s-1.645-.257-2.375-.73c-2.252-1.44-3.825-4.862-3.825-8.842 0-2.066.42-4 1.162-5.552 1.1-2.437 2.95-4.02 5.038-4.02s3.927 1.583 5.038 4.02c.74 1.562 1.162 3.485 1.162 5.552z"/><path d="M58.416 138.24c0 2.077-.42 4-1.162 5.563-1.12 2.427-2.96 4-5.038 4s-3.917-1.573-5.038-4c-.74-1.563-1.162-3.485-1.162-5.563s.42-4 1.162-5.562c1.12-2.427 2.96-4 5.038-4s3.917 1.583 5.038 4c.74 1.563 1.162 3.486 1.162 5.562z"/><path d="M58.416 127.116c0 2.077-.42 4-1.162 5.562-1.12 2.426-2.96 4-5.038 4s-3.917-1.584-5.038-4c-.74-1.563-1.162-3.485-1.162-5.562 0-2.066.42-4 1.162-5.552 1.1-2.437 2.95-4.02 5.038-4.02s3.927 1.584 5.038 4.02c.74 1.563 1.162 3.486 1.162 5.552z"/><path d="M58.416 116.002c0 2.077-.42 4-1.162 5.563-1.12 2.426-2.96 4-5.038 4s-3.917-1.584-5.038-4c-.74-1.563-1.162-3.485-1.162-5.563 0-2.066.42-4 1.162-5.552 1.1-2.437 2.95-4.02 5.038-4.02s3.927 1.584 5.038 4.02c.74 1.563 1.162 3.486 1.162 5.552z"/><path d="M58.416 104.878c0 1.1-.113 2.138-.34 3.115-.195.884-.473 1.717-.823 2.457-1.12 2.426-2.96 4-5.038 4s-3.917-1.573-5.038-4c-.74-1.563-1.162-3.485-1.162-5.572 0-2.066.42-4 1.162-5.553 1.1-2.426 2.95-4 5.038-4 .462 0 .904.083 1.336.227 1.532.514 2.837 1.892 3.7 3.783.742 1.564 1.163 3.487 1.163 5.553z"/><path d="M58.416 93.764c0 2.076-.42 4-1.162 5.562-.473 1.04-1.1 1.923-1.8 2.592-.946.904-2.056 1.418-3.238 1.418-2.077 0-3.917-1.583-5.038-4-.74-1.563-1.162-3.485-1.162-5.562 0-2.066.42-4 1.162-5.552 1.1-2.438 2.95-4.02 5.038-4.02s3.927 1.583 5.038 4.02c.74 1.562 1.16 3.485 1.16 5.552z"/><path d="M58.416 82.65l-.01.33c-.04 1.953-.452 3.753-1.15 5.233-.997 2.158-2.56 3.65-4.37 3.947a3.6 3.6 0 0 1-.668.063c-2.077 0-3.917-1.584-5.038-4-.74-1.563-1.162-3.485-1.162-5.563s.42-4 1.162-5.563c.42-.915.946-1.717 1.553-2.354.997-1.05 2.2-1.655 3.485-1.655 2.077 0 3.917 1.584 5.038 4 .74 1.563 1.16 3.486 1.16 5.563z"/><path d="M58.416 71.524c0 2.077-.42 4-1.162 5.563-.997 2.17-2.58 3.67-4.4 3.958a4.4 4.4 0 0 1-.637.052c-2.077 0-3.917-1.583-5.038-4-.74-1.563-1.162-3.485-1.162-5.563 0-1.202.144-2.364.4-3.423.894-3.6 3.146-6.14 5.8-6.14 3.423.001 6.2 4.278 6.2 9.562zm-.133 98.846H46.15l3.692-12.174 2.375-7.844 2.374 7.844 1.152 3.784z"/><ellipse cx="135.939" cy="149.354" rx="6.198" ry="9.57"/><ellipse cx="135.939" cy="138.235" rx="6.198" ry="9.57"/><ellipse cx="135.939" cy="127.118" rx="6.198" ry="9.569"/><ellipse cx="135.939" cy="116" rx="6.198" ry="9.57"/><ellipse cx="135.939" cy="104.882" rx="6.198" ry="9.57"/><ellipse cx="135.939" cy="93.765" rx="6.198" ry="9.569"/><ellipse cx="135.939" cy="82.646" rx="6.198" ry="9.57"/><ellipse cx="135.939" cy="71.528" rx="6.198" ry="9.57"/><path d="M135.94 150.347l-6.065 20.024h12.13z"/></g><path d="M148.614 200.75v.01H39.54v-.01a54.51 54.51 0 0 1 2.9-17.61l1.1-2.962v-.01a48.38 48.38 0 0 1 1.275-2.879 53.38 53.38 0 0 1 3.948-6.92l2.694-3.67 2.015-2.364 1.06-1.152 1.1-1.1c.03-.03.072-.072.103-.093 1.8-1.8 3.752-3.465 5.788-4.986a56.82 56.82 0 0 1 3.177-2.191c.134-.093.277-.175.42-.257a46.32 46.32 0 0 1 2.899-1.707c.01-.01.02-.01.03-.01l.02-.01a12.23 12.23 0 0 0 1.059-.617 2.99 2.99 0 0 0 .237-.133l1.14-.72.74-.515a19.16 19.16 0 0 0 .915-.657l.894-.68.01-.01a34.33 34.33 0 0 0 4.74-4.575 33.5 33.5 0 0 0 3.455-4.832 33.25 33.25 0 0 0 2.807-5.933l.966-3.218a29.54 29.54 0 0 0 .514-2.345 34.85 34.85 0 0 0 .535-6.086l16.12.08c0 2.036.175 4.03.514 5.974l.515 2.375a31.76 31.76 0 0 0 .936 3.166c.74 2.098 1.676 4.103 2.796 5.984a33.18 33.18 0 0 0 3.105 4.421c1.5 1.84 3.197 3.506 5.06 4.997l.812.637c.083.072.176.134.268.195.007.005.015.013.022.018l.45.33.73.504a3.75 3.75 0 0 0 .236.165l.556.37a19.65 19.65 0 0 0 .575.35l.638.38a7.66 7.66 0 0 0 .638.37c.07.02.123.062.184.093l.34.185.205.124.813.463a34.59 34.59 0 0 1 1.326.802l1.254.822 2.5 1.758.02.01 3.033 2.436 2.673 2.478c.062.052.113.104.175.165 2.52 2.508 4.8 5.253 6.775 8.215 5.85 8.678 9.253 19.124 9.253 30.382z" fill="#dfb28b"/><path d="M148.614 200.75H39.54a54.51 54.51 0 0 1 2.9-17.61l1.1-2.962v-.01a48.38 48.38 0 0 1 1.275-2.879 53.38 53.38 0 0 1 3.948-6.92l2.694-3.67 2.015-2.364 1.06-1.152 1.1-1.1c.03-.03.072-.072.103-.093 1.8-1.8 3.752-3.465 5.788-4.986a56.82 56.82 0 0 1 3.177-2.191c.134-.093.277-.175.42-.257a46.32 46.32 0 0 1 2.899-1.707c.02-.02.02-.02.03-.01l.01-.01h.01l1.06-.617a2.99 2.99 0 0 0 .237-.133l.863-.545.833-.565.34-.247a20.06 20.06 0 0 0 .76-.545c.02-.02.05-.04.072-.052a37.28 37.28 0 0 0 .802-.638l.01-.01.02.02 1.82 1.717.946.78c.01.02.01.02.02.01l.884.688c.072.052.133.104.206.145l.925.637a30.6 30.6 0 0 0 2.148 1.296l1.12.586a15.37 15.37 0 0 0 1.172.535c.05.04.103.06.154.07a30.74 30.74 0 0 0 2.714 1.019 18.47 18.47 0 0 0 1.06.308l.956.247a.83.83 0 0 0 .226.052 32.07 32.07 0 0 0 3.198.555l1.12.113a28.11 28.11 0 0 0 2.293.093h.082l.678-.01a1.21 1.21 0 0 0 .34-.01c.112 0 .216-.01.328-.02a33.22 33.22 0 0 0 1.43-.093l1.224-.145a1.07 1.07 0 0 0 .318-.041l.936-.153c.124-.01.247-.03.37-.072l.668-.134a6.93 6.93 0 0 0 .658-.154l1.347-.36 1.316-.42c.463-.144.904-.318 1.347-.504l.638-.257c1.06-.452 2.077-.967 3.064-1.553a30.49 30.49 0 0 0 1.028-.606l.658-.442.545-.37a26.73 26.73 0 0 0 1.09-.802 27.85 27.85 0 0 0 1.05-.854c.688-.575 1.347-1.192 1.974-1.83l.02-.02 1.07.843c.007.005.015.013.022.018l.132.097c.02.013.04.022.062.04l.987.7a3.75 3.75 0 0 0 .236.165l1.13.72 1.285.74c.072.02.124.06.186.092l.33.195.205.124.813.463a34.59 34.59 0 0 1 1.326.802l1.254.822 2.5 1.758h.02a52.89 52.89 0 0 1 3.033 2.447l2.673 2.478c.062.052.113.104.175.165 2.52 2.508 4.8 5.253 6.775 8.215 5.847 8.677 9.25 19.123 9.25 30.38z" fill="#9d78dc"/><g fill="#e7ecf2"><path d="M94.165 158.35l-.03.052-.01.02c-.02.02-.03.052-.05.072-2.9 4.45-7.68 6.775-12.492 6.775-3.938 0-7.896-1.553-10.867-4.74l-5.583-5.983a46.32 46.32 0 0 1 2.899-1.707c.01-.01.02-.01.03-.01l.01-.01h.01l1.06-.617a2.99 2.99 0 0 0 .237-.133c.288-.175.576-.36.863-.545.093-.063.185-.124.277-.175l.555-.39.186-.124.915-.657c.03-.03.05-.042.072-.063a37.28 37.28 0 0 0 .802-.638l.02.02c.586.596 1.192 1.172 1.83 1.706.31.277.627.545.946.78.01.02.01.02.02.01.287.247.586.473.884.688.072.052.133.104.206.145a11.49 11.49 0 0 0 .925.637c.69.474 1.408.905 2.148 1.296.37.206.74.4 1.12.586.39.195.78.37 1.172.535.05.04.103.06.154.07.884.39 1.79.72 2.714 1.02.35.112.7.216 1.06.308.318.093.637.175.956.247a.83.83 0 0 0 .226.052c1.038.257 2.107.44 3.198.555a12.85 12.85 0 0 0 1.121.113 23.88 23.88 0 0 0 2.282.103h.134z"/><path d="M123.13 154.626l-5.5 5.9a14.78 14.78 0 0 1-10.878 4.74c-4.832 0-9.644-2.345-12.533-6.848l-.01-.02-.04-.052c8.204-.01 15.628-3.402 20.964-8.842l.01-.01c.73.607 1.5 1.172 2.272 1.696a3.05 3.05 0 0 0 .236.164c.37.247.75.483 1.13.72.422.257.854.504 1.285.74.072.02.124.062.186.093a54.38 54.38 0 0 1 2.673 1.583c.072.043.134.084.206.136z"/></g><g fill="#141720"><path d="M123.2 34.008c0 6.98-1.398 13.623-3.938 19.68a51.13 51.13 0 0 1-25.199 26.341 50.68 50.68 0 0 1-21.756 4.874c-4.822 0-9.5-.67-13.9-1.923a52.51 52.51 0 0 1-5.552-1.934c-.226-.092-.43-.185-.637-.277-.175-.07-.34-.144-.504-.216a50.81 50.81 0 0 1-2.981-5.819 49.39 49.39 0 0 1-2.303-6.631c-1.1-4.082-1.686-8.4-1.686-12.83 0-27.235 22.084-49.32 49.33-49.32a49.02 49.02 0 0 1 24.315 6.405c.308.648.596 1.306.884 1.975.946 2.24 1.717 4.555 2.334 6.94 1.05 4.07 1.604 8.337 1.604 12.738z"/><path d="M143.392 55.27c0 7.68-1.758 14.948-4.884 21.426-8.513-5.53-15.268-13.54-19.236-23-2.55-6.056-3.948-12.697-3.948-19.68s1.398-13.622 3.948-19.678l.504-1.162c14.157 8.667 23.616 24.284 23.616 42.103z"/></g><path d="M135.938 52.792l-.02 32.623-.04 1.1-.062.987-.052.7-.04.42-.082.78-.175 1.47a4.7 4.7 0 0 1-.052.37l-.113.74v.03c-.01.05-.02.092-.02.144l-.164.925-.288 1.47c-.01.02-.01.04-.02.062l-.04.216c-.01.02-.01.04-.02.062l-.145.638-.03.145c-.02.112-.04.226-.082.34-.03.185-.083.37-.124.556-.03.103-.05.215-.093.318l-.07.268-.72 2.487-.38 1.162c-.01.04-.03.082-.04.123l-.35.998c-.01.02-.01.03-.02.05l-.504 1.305-.483 1.183-.452 1.05c-.02.062-.05.113-.07.175l-.515 1.1-.555 1.142c-.01.02-.02.03-.03.052l-1.142 2.18-.555.986a60.44 60.44 0 0 1-5.254 7.649l-.802.987-1.162 1.357-1.018 1.1c-.01.02-.02.03-.04.05l-3.023 3.013-.637.586-1.06.926-.852.72-2.23 1.737-.946.68-1.563 1.06-.884.556c-.052.03-.093.062-.145.082l-3.012 1.676-.77.38-.802.37-1.02.433c-.133.062-.267.112-.4.154l-1.213.452-1.522.483-1.06.277c-.02.01-.04.02-.072.02l-1.048.227-.278.05-.863.134-1.234.134a2.83 2.83 0 0 1-.421.031l-.966.03h-.04a15.28 15.28 0 0 1-.956-.03 2.3 2.3 0 0 1-.37-.031 9.63 9.63 0 0 1-.895-.082c-.062 0-.134-.01-.195-.02l-1.15-.186-.997-.205c-1.758-.4-3.567-1.008-5.397-1.82-1.563-.688-3.146-1.52-4.72-2.488l-.268-.164-2.097-1.378-1.172-.843-3.63-2.92-.987-.905-.976-.904-2.21-2.272c-.052-.04-.092-.093-.134-.134l-.895-.986-2.385-2.88-.853-1.1-2.95-4.308-.73-1.213-.843-1.47-1.15-2.19-1.645-3.568-.35-.863-.442-1.12-.185-.524-.4-1.11-.535-1.654-.463-1.614-.452-1.76c-.01-.062-.03-.123-.04-.184 0-.02-.01-.03-.01-.052l-.514-2.447-.154-.936-.34-2.446-.113-1.08-.093-1.13-.103-2.087-.02-1.224V52.792c0-22.34 17.51-40.6 39.563-41.793.04-.01.072-.01.113-.01l.864-.03 1.326-.02c.442 0 .884.01 1.326.02h.093l.926.042h.03l.432.03.915.072c.154.01.3.02.453.04l.298.03a43.12 43.12 0 0 1 4.802.792c2.725.617 5.346 1.5 7.834 2.622a41.08 41.08 0 0 1 6.601 3.711c.967.658 1.892 1.357 2.786 2.098l1.028.864v.01c1.984 1.728 3.804 3.63 5.418 5.706 5.51 7.023 8.832 15.844 8.904 25.446a5.77 5.77 0 0 1 .008.371z" fill="#dfb28b"/><path d="M143.392 55.27c0 4.42-.586 8.708-1.686 12.8-.596 2.293-1.377 4.514-2.303 6.652-.277.668-.576 1.337-.895 1.984a39.78 39.78 0 0 1-2.57-1.799 38.22 38.22 0 0 1-1.819-1.398c-1.5-1.213-2.9-2.5-4.257-3.876-4.473-4.565-8.08-9.963-10.6-15.937a51.13 51.13 0 0 1-25.199 26.341C87.472 83.153 80.1 84.9 72.317 84.9c-4.822 0-9.5-.67-13.9-1.923a52.51 52.51 0 0 1-5.552-1.934c-.226-.092-.43-.185-.637-.277-.175-.07-.34-.144-.504-.216a50.81 50.81 0 0 1-2.981-5.819A49.39 49.39 0 0 1 46.43 68.1c-1.1-4.082-1.686-8.4-1.686-12.83 0-27.235 22.084-49.32 49.33-49.32a49.02 49.02 0 0 1 24.315 6.405c.462.257.925.535 1.388.813 14.157 8.667 23.616 24.284 23.616 42.103z" fill="#141720"/></g></svg>