<svg xmlns="http://www.w3.org/2000/svg" xmlns:xlink="http://www.w3.org/1999/xlink" viewBox="0 0 188.148 188.148"><defs><circle id="A" cx="94.074" cy="94.074" r="94.074"/></defs><use xlink:href="#A" fill="#7e6990"/><clipPath id="B"><use xlink:href="#A"/></clipPath><g clip-path="url(#B)"><path d="M148.645 200.743v.01H39.57v-.01c0-6.16 1.018-12.1 2.9-17.612.34-.997.7-1.984 1.1-2.96v-.01a46.82 46.82 0 0 1 1.275-2.878c1.8-3.794 4.04-7.34 6.642-10.6.658-.813 1.327-1.604 2.015-2.365.34-.4.7-.77 1.06-1.152l1.1-1.1c1.84-1.84 3.814-3.527 5.9-5.08a56.27 56.27 0 0 1 3.177-2.19l1.182-.73.535-.3a48.96 48.96 0 0 1 1.614-.925c.02-.02.04-.02.04-.02a24.61 24.61 0 0 0 1.306-.761 32.24 32.24 0 0 0 3.69-2.57 34.58 34.58 0 0 0 9.14-11.094c.7-1.367 1.337-2.786 1.86-4.246 1.306-3.64 2.016-7.557 2.016-11.65l16.12.083a34.46 34.46 0 0 0 1.963 11.515 32.65 32.65 0 0 0 1.84 4.257c2.23 4.328 5.347 8.132 9.12 11.145a27.74 27.74 0 0 0 2.283 1.686c.082.062.154.113.236.165.37.247.74.494 1.13.72a32.55 32.55 0 0 0 1.285.75c.072.02.134.05.185.092.483.268.967.545 1.44.833.412.236.823.483 1.234.74a18.85 18.85 0 0 1 1.254.822c.853.545 1.686 1.142 2.498 1.758l.02.01c1.038.77 2.046 1.594 3.033 2.436a49.12 49.12 0 0 1 2.848 2.643c9.9 9.87 16.03 23.504 16.03 38.597z" fill="#ecc19c"/><path d="M148.645 200.743H39.57c0-6.16 1.018-12.1 2.9-17.612.34-.997.7-1.984 1.1-2.96v-.01a46.82 46.82 0 0 1 1.275-2.878c1.8-3.794 4.04-7.34 6.642-10.6.658-.813 1.327-1.604 2.015-2.365.34-.4.7-.77 1.06-1.152l1.1-1.1c1.84-1.84 3.814-3.527 5.9-5.08a56.27 56.27 0 0 1 3.177-2.19l1.182-.73c.175-.113.35-.216.524-.32a48.43 48.43 0 0 1 1.625-.925c.02-.02.04-.01.04-.01v-.01l1.306-.75c1.285-.782 2.52-1.645 3.67-2.6l.02.02a29.3 29.3 0 0 0 20.964 8.852h.082c8.225 0 15.67-3.393 21.015-8.842l.01-.01c.73.607 1.5 1.172 2.272 1.696.082.062.154.113.236.165.37.247.75.483 1.13.72.422.257.854.504 1.285.74.072.02.123.062.185.092l1.45.833 1.224.75a18.85 18.85 0 0 1 1.254.822c.853.545 1.686 1.142 2.498 1.758h.02a53.24 53.24 0 0 1 3.033 2.447c.987.843 1.933 1.728 2.848 2.643 9.9 9.87 16.03 23.502 16.03 38.595z" fill="#1c5a7d"/><path d="M121.738 153.727l-.01.01-1.12 1.14a36.88 36.88 0 0 1-26.516 11.145h-.02c-10.137-.03-19.524-4-26.546-11.165l-1.08-1.1a48.43 48.43 0 0 1 1.625-.925c.02-.02.04-.01.04-.01v-.01l1.306-.75c1.285-.782 2.52-1.645 3.67-2.6l.02.02a29.3 29.3 0 0 0 20.964 8.852h.082c8.225 0 15.67-3.393 21.015-8.842l.01-.01c.73.607 1.5 1.172 2.272 1.696.082.062.154.113.236.165.37.247.75.483 1.13.72.422.257.854.504 1.285.74.072.02.123.062.185.092.484.266.978.544 1.45.832z" fill="#7ca6ba"/><path d="M135.968 64.094V89.2l-.02 1.357-.04 1.048-.062 1.038-.05.7-.04.42-.082.78-.082.74-.093.73-.35 2.2-.288 1.47c-.01.02-.01.04-.02.062l-.04.216c-.01.02-.01.04-.02.062 0 .02 0 .04-.01.062l-.072.308a4.46 4.46 0 0 1-.082.37 2.22 2.22 0 0 1-.093.38c-.03.185-.082.37-.124.555l-.092.32-.072.268-.72 2.488-.38 1.162c-.01.04-.03.082-.042.123l-.37 1.05-.503 1.307-.483 1.183-.453 1.048c-.02.062-.05.113-.072.175l-.514 1.1-.555 1.142-1.172 2.23-.555.987c-1.584 2.725-3.342 5.285-5.254 7.65l-.802.987-1.162 1.357-1.06 1.162-3.023 3.013-.638.586-1.06.925-.854.72-2.23 1.737-.946.68-1.563 1.06-.884.555-2.9 1.624-.267.133-.77.38-.802.37-1.018.432a3.36 3.36 0 0 1-.401.154l-1.213.452-1.52.483-1.06.277c-.02.01-.04.02-.072.02l-1.05.226-.278.05-.864.134-1.233.134a2.85 2.85 0 0 1-.421.031l-.977.03h-.03c-.32 0-.637-.01-.956-.03a2.19 2.19 0 0 1-.37-.031 9.63 9.63 0 0 1-.895-.082c-.062 0-.134-.01-.195-.02l-1.152-.185-.997-.205c-1.758-.4-3.567-1.008-5.398-1.82l-1.86-.895-2.858-1.594-2.365-1.542-1.172-.843-3.63-2.92-.987-.905-.977-.905-2.344-2.406-.895-.987-2.385-2.88-.853-1.1-2.95-4.308-.73-1.213-.843-1.47c-1.028-1.85-1.974-3.773-2.797-5.758l-.35-.863-.442-1.12-.586-1.635-.535-1.655-.463-1.614-.452-1.758c-.01-.062-.03-.124-.04-.185l-.524-2.5-.494-3.382-.113-1.08-.092-1.13-.103-2.087-.02-1.357V64.094a41.74 41.74 0 0 1 3.259-16.214c.05-.144.113-.277.175-.4a40.67 40.67 0 0 1 2.838-5.418l.514-.812c7.464-11.433 20.368-19 35.04-19h.04a42.39 42.39 0 0 1 9.274 1.028c2.725.617 5.346 1.5 7.834 2.622a41.49 41.49 0 0 1 9.387 5.809c2.385 1.953 4.555 4.153 6.446 6.58a42.48 42.48 0 0 1 2.098 2.93 14.59 14.59 0 0 1 .535.843 40.86 40.86 0 0 1 2.837 5.398l.185.432c2.056 4.884 3.208 10.23 3.25 15.844a3.78 3.78 0 0 1 .012.37z" fill="#ecc19c"/><g fill="#d4dce6"><path d="M135.968 89.2l-.02 1.357-.04 1.048-.062 1.038-.05.7-.04.42-.082.78-.082.74-.093.73-.35 2.2-.257 1.275c-.01.093-.03.175-.05.257l-.04.216c-.01.02-.01.04-.02.062 0 .02 0 .04-.01.062v.02l-.072.33a2.93 2.93 0 0 1-.082.329 2.22 2.22 0 0 1-.093.38 5.78 5.78 0 0 1-.154.596c-.01.092-.03.185-.06.277l-.072.268-.72 2.488-.38 1.162c-.01.04-.03.082-.042.123l-.37 1.05-.503 1.307-.483 1.183-.453 1.048c-.02.062-.05.113-.072.175l-.514 1.1-.555 1.142-1.172 2.23-.555.987c-1.584 2.725-3.342 5.285-5.254 7.65l-.802.987-1.162 1.357-1.06 1.162-3.023 3.013-.638.586-1.06.925-.854.72-2.23 1.737-.946.68-1.563 1.06-.884.555-2.9 1.624-.267.133-.77.38-.802.37-1.018.432a3.36 3.36 0 0 1-.401.154l-1.213.452-1.52.483-1.06.277c-.02.01-.04.02-.072.02l-1.05.226-.278.05-.864.134-1.233.134a2.85 2.85 0 0 1-.421.031l-.977.03h-.03c-.32 0-.637-.01-.956-.03a2.19 2.19 0 0 1-.37-.031 9.63 9.63 0 0 1-.895-.082c-.062 0-.134-.01-.195-.02l-1.152-.185-.997-.205c-1.758-.4-3.567-1.008-5.398-1.82l-1.86-.895-2.858-1.594-2.365-1.542-1.172-.843-3.63-2.92-.987-.905-.977-.905-2.344-2.406-.895-.987-2.385-2.88-.853-1.1-2.95-4.308-.73-1.213-.843-1.47c-1.028-1.85-1.974-3.773-2.797-5.758l-.35-.863-.442-1.12-.586-1.635-.535-1.655-.463-1.614-.452-1.758c-.01-.062-.03-.124-.04-.185l-.524-2.5-.494-3.382-.113-1.08-.092-1.13-.103-2.087-.02-1.357 6.683 13.14 11.484 5.007 54.152 4.885 11.403-23.03z"/><path d="M94.153 95.8l-.04 25.724h-.01l-.01-.01-.02-.01-40.437-20.583c-.01-.062-.03-.124-.04-.185l-.524-2.5-.494-3.382-.113-1.08-.092-1.13-.103-2.087-.02-1.357V76.904l.01.524a4.17 4.17 0 0 0 .021.37c.102 2.868.576 6.004 1.45 9.212.7 2.57 1.594 4.945 2.622 7.064v.01c2.694 5.603 6.302 9.407 9.624 10.024.205.03.42.05.627.072a36.15 36.15 0 0 0 4.02.226c5.243 0 9.9-4.215 12.83-5.922l.062-.03c.154-.093.3-.185.442-.278.04-.03.082-.05.123-.072 2.468-1.4 6.025-2.303 9.994-2.313h.08z"/><path d="M135.98 76.9l-.01 12.286a50.39 50.39 0 0 1-.822 9.037l-.75 3.485-9.5 13.705-30.803 6.097-.03-25.728h.082c3.968.01 7.536.905 10.003 2.313a.71.71 0 0 1 .113.072c.144.092.298.185.452.277.01.01.03.02.052.03 2.94 1.707 7.587 5.925 12.83 5.925a36.15 36.15 0 0 0 4.02-.226 11.6 11.6 0 0 0 .637-.072c3.3-.617 6.93-4.42 9.613-10.024v-.01c1.028-2.118 1.912-4.493 2.622-7.063.925-3.393 1.4-6.704 1.47-9.716.01-.132.01-.255.01-.4z"/></g><ellipse cx="94.107" cy="109.091" rx="10.255" ry="3.17" fill="#ecc19c"/><path d="M130.776 63.477c0-.175-.124-.33-.298-.35a111.3 111.3 0 0 0-15.206-1.131c-8.07 0-18.486 2.53-20.306 2.53h-1.614c-.843 0-3.557-.545-7.032-1.13-4-.68-8.976-1.398-13.273-1.398-5.212 0-10.147.494-12.996.833a58.33 58.33 0 0 0-2.2.298c-.175.02-.298.175-.298.35l-.082 4.338c0 .154.092.288.226.35l.494.165c.73.278.668 13.355 4.565 16.625 2.313 1.923 4.38 3.023 13.067 3.023 5.028 0 8.194-1.357 11.196-5.408 2.16-2.9 4.082-9.788 4.082-9.788.555-2.735 2.54-3.043 2.98-3.084h.083c.072 0 2.458.04 3.074 3.084 0 0 1.923 6.878 4.082 9.788 3.002 4.05 6.168 5.408 11.196 5.408 8.688 0 10.754-1.1 13.067-3.023 3.896-3.27 3.835-16.347 4.565-16.625l.494-.165c.134-.062.226-.195.226-.35l-.083-4.338zM87.008 78.95c-1.285 3.023-4.575 6.92-9.222 7.156-13.93.7-14.568-3.187-15.474-6.27s-1.14-5.8-.78-8.863c.36-3.084 1.14-4.894 2.54-5.798.596-.4 1.254-.76 2.93-1.018 1.5-.216 3.814-.35 7.67-.35 2.24 0 4.33.175 6.2.473 4.955.802 8.307 2.488 8.307 4.143-.001 1.14-.288 6.056-2.17 10.528zm38.997.885c-.905 3.084-1.542 6.97-15.474 6.27-4.647-.236-7.947-4.133-9.222-7.156-1.882-4.472-2.17-9.387-2.17-10.528 0-2.282 6.343-4.616 14.507-4.616 8.153 0 9.46.607 10.6 1.368 1.398.905 2.18 2.714 2.54 5.798.36 3.074.123 5.778-.782 8.863z" fill="#1a1a1a"/><g fill="#d4dce6"><path d="M136.06 47.87c-.01 0-.01.01-.02.01H52.247c0-29.6 19.946-28.407 41.825-25.97h.02l4.678.524c16.368 1.82 29.692-5.254 36.365-11.515 9.077 6.468 10.692 30.34.925 36.952z"/><path d="M66.846 46.132l-.226.7-.35 1.038-.3.823c-1.922 5.14-4.832 9.85-8.4 14.065-2.508 2.97-5.027 7.742-5.284 15.03-.02.42-.03.843-.03 1.285V47.88l14.6-1.747zm69.33 1.75L121.58 46.14l.227.705c1.9 5.875 5.074 11.208 9.055 15.924 2.657 3.148 5.314 8.302 5.314 16.323l-.001-31.2z"/><ellipse cx="94.07" cy="46.141" rx="31.19" ry="5.912"/></g></g></svg>