<svg xmlns="http://www.w3.org/2000/svg" xmlns:xlink="http://www.w3.org/1999/xlink" viewBox="0 0 188.149 188.149"><defs><circle id="A" cx="94.075" cy="94.075" r="94.074"/></defs><use xlink:href="#A" fill="#7ddbd4"/><clipPath id="B"><use xlink:href="#A"/></clipPath><g clip-path="url(#B)"><g fill="#141720"><path d="M151.952 66.682l-.195 4.822c-.227 2.704-.638 5.346-1.213 7.927a56.5 56.5 0 0 1-3.383 10.333 56.77 56.77 0 0 1-4.863 8.934c-1.5 2.242-3.136 4.37-4.914 6.374l-1.337 1.45a54.41 54.41 0 0 1-4.698 4.42l-1.275 1.05a56.19 56.19 0 0 1-6.477 4.472l-2.14 1.214a57.16 57.16 0 0 1-18.959 6.261 57.04 57.04 0 0 1-8.42.617 57.87 57.87 0 0 1-8.287-.597 57.67 57.67 0 0 1-19.113-6.28 62.96 62.96 0 0 1-2.817-1.625c-2.787-1.707-5.408-3.64-7.855-5.788a17.18 17.18 0 0 1-.802-.71 57.17 57.17 0 0 1-5.16-5.315l-.884-1.06c-2.416-2.97-4.545-6.18-6.343-9.592l-.504-.987a58.27 58.27 0 0 1-3.527-8.729 58.45 58.45 0 0 1-.524-1.82 56.49 56.49 0 0 1-1.789-9.674l-.144-1.676c-.082-1.327-.134-2.673-.134-4.02a62.38 62.38 0 0 1 .052-2.416 22.65 22.65 0 0 1 .062-1.192 56.08 56.08 0 0 1 .997-7.72l.36-1.687a55.89 55.89 0 0 1 1.697-5.89 44.89 44.89 0 0 1 .76-2.077c.812-2.108 1.758-4.154 2.807-6.128.833-1.573 1.738-3.105 2.714-4.585.627-.966 1.285-1.902 1.974-2.827a50.02 50.02 0 0 1 2.365-2.961c1.44-1.697 2.97-3.3 4.585-4.792a46.35 46.35 0 0 1 1.686-1.521c2.17-1.88 4.472-3.6 6.9-5.13.822-.524 1.655-1.028 2.508-1.5a54.35 54.35 0 0 1 3.794-1.964 52.55 52.55 0 0 1 2.437-1.08c2.426-1.007 4.924-1.85 7.505-2.53a53.94 53.94 0 0 1 3.948-.873 57.64 57.64 0 0 1 6.148-.823c1.048-.082 2.107-.134 3.177-.154l1.398-.02a58.1 58.1 0 0 1 3.3.093 67.34 67.34 0 0 1 2.087.154 56.32 56.32 0 0 1 8.503 1.44 57.6 57.6 0 0 1 1.892.494 57.63 57.63 0 0 1 8.996 3.382 54 54 0 0 1 2.427 1.224c1.5.8 2.95 1.655 4.37 2.58l.75.494a56.66 56.66 0 0 1 5.665 4.37 48.15 48.15 0 0 1 3.413 3.229 55.15 55.15 0 0 1 4.761 5.521 21.59 21.59 0 0 1 .852 1.151 56.77 56.77 0 0 1 3.918 6.241 32.61 32.61 0 0 1 .616 1.182 57.38 57.38 0 0 1 4.514 11.896c.545 2.118.967 4.277 1.265 6.477.36 2.596.544 5.25.544 7.942z"/><path d="M58.64 105.803c0 .05 0 .103-.01.154a5.06 5.06 0 0 1-2.622 4.308 3.61 3.61 0 0 1-.607.288 4.92 4.92 0 0 1-1.871.36 5.11 5.11 0 0 1-5.1-5.11c0-.483.072-.956.195-1.408a4.97 4.97 0 0 1 .535-1.213c.884-1.48 2.5-2.478 4.37-2.478a5.1 5.1 0 0 1 1.326.175c.658.164 1.254.462 1.77.863a5.28 5.28 0 0 1 1.141 1.203 5.05 5.05 0 0 1 .874 2.858zM44.646 50.767a5.03 5.03 0 0 1-.782 2.694 5.07 5.07 0 0 1-4.328 2.406 5.08 5.08 0 0 1-2.231-.514 5.21 5.21 0 0 1-1.018-.648 5.1 5.1 0 0 1-1.851-3.938 5.12 5.12 0 0 1 3.537-4.863c.494-.165 1.018-.247 1.563-.247a3.62 3.62 0 0 1 .586.042c2.282.247 4.102 2.005 4.452 4.256a4.29 4.29 0 0 1 .072.812zM73.25 16.664a5.12 5.12 0 0 1-.957 2.981 5.1 5.1 0 0 1-2.95 1.984 5.03 5.03 0 0 1-1.193.144c-2.447 0-4.493-1.717-4.986-4.02a4.83 4.83 0 0 1-.124-1.1c0-.452.062-.884.175-1.295a5.1 5.1 0 0 1 4.935-3.804 5.13 5.13 0 0 1 1.552.237c.853.277 1.604.76 2.2 1.408.833.905 1.347 2.118 1.347 3.455z"/><circle cx="121.308" cy="18.853" r="5.104"/><path d="M43.597 67.68c0 .648-.124 1.275-.35 1.84-.74 1.912-2.6 3.27-4.76 3.27a5.23 5.23 0 0 1-2.015-.4c-.422-.185-.812-.432-1.172-.7a5.12 5.12 0 0 1-1.912-4 5.1 5.1 0 0 1 2.19-4.195 4.52 4.52 0 0 1 .73-.41c.658-.32 1.398-.494 2.18-.494 2.16 0 4 1.336 4.75 3.23a4.92 4.92 0 0 1 .36 1.87z"/><circle cx="133.152" cy="107.931" r="5.104"/><circle cx="138.402" cy="101.993" r="5.104"/><circle cx="126.407" cy="112.201" r="5.104"/><path d="M99.58 10.135c0 1.902-1.038 3.558-2.58 4.432-.75.432-1.614.678-2.53.678-.134 0-.257 0-.4-.02-.998-.072-1.913-.432-2.663-1.007a5.08 5.08 0 0 1-2.046-4.082 4.68 4.68 0 0 1 .134-1.151 5 5 0 0 1 1.912-2.92 4.93 4.93 0 0 1 2.663-1.007c.134-.02.257-.02.4-.02 1.748 0 3.3.874 4.205 2.2.37.535.648 1.152.792 1.8a5.33 5.33 0 0 1 .113 1.079z"/><circle cx="143.506" cy="35.72" r="5.104"/><path d="M56.007 96.9a7.31 7.31 0 0 1-.39 2.375c-.185.576-.442 1.1-.76 1.614a7.49 7.49 0 0 1-4.812 3.362 6.5 6.5 0 0 1-1.419.154c-.04.01-.092.01-.133.01-4.154 0-7.526-3.362-7.526-7.516 0-1.224.298-2.386.813-3.403a5.89 5.89 0 0 1 .535-.884c1.357-1.954 3.62-3.238 6.18-3.238.216 0 .432.01.647.03 1.552.133 2.972.74 4.112 1.676a7.49 7.49 0 0 1 2.756 5.819zm14.178 11.75c0 3.3-2.138 6.118-5.1 7.115a6.74 6.74 0 0 1-1.213.298 6.63 6.63 0 0 1-1.203.103 7.49 7.49 0 0 1-7.26-5.603c-.092-.318-.165-.658-.195-.997a6.75 6.75 0 0 1-.062-.915c0-2.077.843-3.948 2.2-5.305l.432-.4c1.316-1.152 3.023-1.83 4.894-1.83a7.53 7.53 0 0 1 7.526 7.525zm-18.023-66.2c0 4.154-3.362 7.526-7.516 7.526h-.072a7.48 7.48 0 0 1-5.212-2.18 7.14 7.14 0 0 1-1.388-1.871 7.46 7.46 0 0 1-.854-3.475c0-3.115 1.902-5.788 4.606-6.92a7.28 7.28 0 0 1 2.92-.596c.34 0 .668.02.997.072a7.46 7.46 0 0 1 6.426 6.364 6.16 6.16 0 0 1 .093 1.079z"/><circle cx="113.786" cy="15.242" r="7.521"/><path d="M84.476 13.744c0 .966-.185 1.892-.524 2.745-1.1 2.796-3.814 4.78-7.002 4.78a7.45 7.45 0 0 1-4.658-1.625c-1.614-1.265-2.683-3.177-2.827-5.356-.02-.175-.03-.36-.03-.545 0-.668.092-1.326.267-1.943.843-3.208 3.763-5.573 7.248-5.573a7.43 7.43 0 0 1 3.239.74c1.316.617 2.416 1.604 3.167 2.838a7.51 7.51 0 0 1 1.12 3.938zM48.43 76.666a7.44 7.44 0 0 1-1.676 4.719c-1.378 1.706-3.485 2.796-5.85 2.796-.73 0-1.45-.103-2.118-.3a6.68 6.68 0 0 1-1.511-.627c-2.313-1.275-3.886-3.742-3.886-6.58a7.44 7.44 0 0 1 1.912-4.997 5.71 5.71 0 0 1 1.028-.966c1.265-.987 2.858-1.563 4.575-1.563a7.39 7.39 0 0 1 2.344.38 7.53 7.53 0 0 1 5.182 7.147z"/><circle cx="134.066" cy="30.285" r="7.521"/><circle cx="145.111" cy="46.687" r="7.522"/><path d="M69.434 22.76a7.53 7.53 0 0 1-7.526 7.526 7.09 7.09 0 0 1-1.758-.216c-2.776-.658-4.956-2.868-5.583-5.665a7.17 7.17 0 0 1-.185-1.645c0-.133 0-.267.02-.4.195-3.968 3.485-7.115 7.505-7.115.442 0 .884.04 1.306.123a7.19 7.19 0 0 1 2.457.884c1.943 1.12 3.33 3.074 3.67 5.377a6.81 6.81 0 0 1 .092 1.132zM49.622 86.885a6.68 6.68 0 0 1-.483 2.5 6.73 6.73 0 0 1-6.23 4.195h-.092c-.36-.01-.7-.04-1.04-.103-3.167-.535-5.583-3.3-5.583-6.6a6.58 6.58 0 0 1 1.08-3.64c.278-.432.607-.832.987-1.193a6.62 6.62 0 0 1 4.647-1.881c1.43 0 2.755.453 3.845 1.213 1.738 1.214 2.868 3.22 2.868 5.5zm5.52-51.17a6.69 6.69 0 0 1-3.074 5.634 6.61 6.61 0 0 1-3.64 1.079c-2.272 0-4.277-1.13-5.5-2.858a6.73 6.73 0 0 1-1.213-3.855l.01-.206c.083-3.064 2.242-5.604 5.1-6.302a6.2 6.2 0 0 1 1.594-.196 6.39 6.39 0 0 1 1.553.186c2.9.688 5.068 3.25 5.15 6.323a1.26 1.26 0 0 1 .01.195z"/><circle cx="103.253" cy="12.143" r="6.71"/><path d="M47.68 59.496c0 1.12-.267 2.17-.75 3.095a6.65 6.65 0 0 1-3.691 3.218 6.68 6.68 0 0 1-6.992-1.542c-.247-.246-.473-.504-.67-.78-.833-1.1-1.316-2.488-1.316-4a6.63 6.63 0 0 1 2.025-4.79 6.17 6.17 0 0 1 1.377-1.039 6.65 6.65 0 0 1 3.3-.874 6.53 6.53 0 0 1 2.9.668 6.54 6.54 0 0 1 2.406 1.923 6.64 6.64 0 0 1 1.41 4.112z"/><circle cx="149.53" cy="65.179" r="6.709"/><circle cx="145.111" cy="83.371" r="6.709"/><path d="M60.243 29c0 .36-.03.72-.093 1.06-.4 2.673-2.416 4.812-5.017 5.45-.514.134-1.05.195-1.604.195-2.56 0-4.8-1.44-5.912-3.557a6.38 6.38 0 0 1-.782-2.951c-.01-.062-.01-.134-.01-.196a6.71 6.71 0 0 1 6.704-6.713 6.16 6.16 0 0 1 .874.062c.647.083 1.275.257 1.85.524a6.67 6.67 0 0 1 3.989 6.128z"/><circle cx="129.223" cy="23.847" r="6.71"/><path d="M92.804 10.135c0 1.532-.514 2.95-1.388 4.082a6.66 6.66 0 0 1-5.315 2.632 6.47 6.47 0 0 1-2.149-.36c-2.498-.833-4.328-3.095-4.544-5.81l-.02-.545c0-1.14.288-2.22.802-3.167a6.69 6.69 0 0 1 5.912-3.537 6.66 6.66 0 0 1 5.315 2.632 6.62 6.62 0 0 1 1.265 2.766c.082.422.123.854.123 1.306z"/></g><path d="M148.6 197.626v.01H39.536v-.01c0-15.124 6.148-28.798 16.1-38.668l1.12-1.1a56.83 56.83 0 0 1 4.78-4c.514-.38 1.038-.762 1.563-1.12 1.08-.74 2.2-1.45 3.32-2.107a50.27 50.27 0 0 1 1.625-.926c.01-.02.03-.02.03-.02a23.92 23.92 0 0 0 1.306-.76 11.23 11.23 0 0 0 .956-.597 32.94 32.94 0 0 0 2.745-1.963v-.01a34.5 34.5 0 0 0 10.99-15.35 34.34 34.34 0 0 0 1.717-7.054 35.57 35.57 0 0 0 .298-4.585l16.12.082c0 1.522.103 3.013.288 4.482a34.64 34.64 0 0 0 1.676 7.032c2.17 6.107 5.994 11.423 10.95 15.412l1.12.854s.01 0 .02.01c.288.226.586.432.885.627a1.61 1.61 0 0 0 .267.185c.082.062.154.113.236.165l.093.062c.34.226.7.442 1.038.658a31.84 31.84 0 0 0 1.285.75.54.54 0 0 1 .186.093c.483.268.967.545 1.44.833.627.36 1.244.74 1.85 1.13 1.08.7 2.118 1.42 3.146 2.2h.02c2.076 1.552 4.04 3.25 5.87 5.08a54.27 54.27 0 0 1 16.026 38.597z" fill="#b08874"/><path d="M148.6 197.626H39.536c0-15.124 6.148-28.798 16.1-38.668l1.12-1.1a56.83 56.83 0 0 1 4.78-4c.514-.38 1.038-.762 1.563-1.12a59.35 59.35 0 0 1 3.31-2.118 52.2 52.2 0 0 1 1.625-.925c.02-.02.04-.01.04-.01v-.01a36.43 36.43 0 0 0 2.57-1.563 20.89 20.89 0 0 0 1.151-.812c.04-.02.072-.052.113-.072.277-.206.555-.422.833-.647l.3-.247h.01l.02.02a30.64 30.64 0 0 0 2.077 1.933 29.32 29.32 0 0 0 5.994 3.918 29.25 29.25 0 0 0 12.882 3.002h.083c8.225 0 15.66-3.394 21.004-8.832l.02-.02c.38.318.77.617 1.173.915a17.91 17.91 0 0 0 .833.597c.082.062.174.123.267.185.082.062.154.113.236.165l.093.062c.34.226.7.442 1.038.658a32.84 32.84 0 0 0 1.285.74c.072.02.124.062.186.092l1.45.833a45.77 45.77 0 0 1 1.841 1.142 50.79 50.79 0 0 1 3.146 2.189h.02c2.076 1.553 4.04 3.26 5.87 5.1a54.26 54.26 0 0 1 16.027 38.595z" fill="#efc7a1"/><path d="M121.704 150.6h-.01l-1.12 1.14c-7.053 7.186-16.46 11.135-26.495 11.146h-.02c-10.148-.02-19.545-4-26.567-11.166l-1.08-1.1a52.2 52.2 0 0 1 1.625-.925c.02-.02.04-.01.04-.01v-.01l1.306-.75.956-.597.3-.216a17.93 17.93 0 0 0 1.15-.812c.04-.02.072-.052.113-.072l.833-.647.3-.247.02.02h.01v.01c.658.678 1.347 1.315 2.077 1.922 1.83 1.543 3.835 2.87 5.994 3.918a29.25 29.25 0 0 0 12.882 3.002h.083c8.225 0 15.66-3.394 21.004-8.832l.02-.02a32.46 32.46 0 0 0 1.1.874s.01 0 .02.01.03.02.052.03a17.91 17.91 0 0 0 .833.597c.082.062.174.123.267.185.082.062.154.113.236.165l.093.062c.34.226.7.442 1.038.658a32.84 32.84 0 0 0 1.285.74c.072.02.124.062.186.092.482.268.975.545 1.447.833z" fill="#543e36"/><path d="M135.934 56.412v24.5c0 2.303-.164 4.575-.473 6.806-.75 5.552-2.406 10.827-4.688 15.7-.668 1.43-1.388 2.828-2.16 4.185l-.525.915a62.24 62.24 0 0 1-5.16 7.413 39.24 39.24 0 0 1-1.47 1.748c-5.274 6.056-11.402 10.672-17.283 13.293-3.526 1.563-6.98 2.417-10.096 2.417-3.095 0-6.508-.833-10.004-2.375-5.912-2.612-12.08-7.25-17.396-13.335a59.15 59.15 0 0 1-1.604-1.923 61.58 61.58 0 0 1-6.446-9.798c-.453-.864-.884-1.737-1.295-2.622a45.44 45.44 0 0 1-.71-1.594 51.99 51.99 0 0 1-1.008-2.478 54.42 54.42 0 0 1-2.365-8.194 44.96 44.96 0 0 1-.565-3.342 49.42 49.42 0 0 1-.473-6.806v-24.5h83.72z" fill="#b08874"/><g fill="#141720"><path d="M51.2 87.938a5.57 5.57 0 0 0 5.562-5.562V55.67H51.2v32.268zm80.2-32.268h5.56v32.27a5.57 5.57 0 0 1-5.56-5.562V55.67z"/><circle cx="83.661" cy="57.387" r="6.71"/><circle cx="68.146" cy="55.868" r="6.71"/><circle cx="52.217" cy="58.47" r="6.71"/><circle cx="103.253" cy="56.661" r="6.71"/><circle cx="123.541" cy="56.661" r="6.71"/><circle cx="137.462" cy="63.018" r="6.709"/><circle cx="94.075" cy="57.892" r="5.104"/><circle cx="59.49" cy="57.387" r="5.104"/><circle cx="76.951" cy="57.387" r="5.104"/><circle cx="113.786" cy="58.992" r="5.104"/><circle cx="130.251" cy="58.992" r="5.104"/></g><path d="M129.303 69.095c0-.164-.124-.308-.288-.33-1.42-.216-7.783-1.1-14.62-1.1-7.772 0-17.797 2.436-19.545 2.436h-1.553c-.812 0-3.423-.535-6.765-1.1-3.835-.647-8.627-1.347-12.77-1.347-5.007 0-9.768.473-12.502.802l-2.118.288c-.175.02-.298.165-.298.33l-.082 4.174a.37.37 0 0 0 .226.339l.473.165c.7.267.638 12.84 4.4 15.987 2.23 1.85 4.215 2.9 12.563 2.9 4.843 0 7.886-1.306 10.775-5.202 2.087-2.796 3.928-9.418 3.928-9.418.565-2.725 2.6-2.94 2.92-2.96h.042c.062 0 2.354.04 2.95 2.96 0 0 1.85 6.62 3.928 9.418 2.9 3.896 5.932 5.202 10.774 5.202 8.35 0 10.333-1.06 12.563-2.9 3.753-3.146 3.7-15.72 4.4-15.987l.473-.165a.37.37 0 0 0 .226-.339l-.082-4.173z" fill="#1a1a1a"/></g><g fill="#141720"><circle cx="144.234" cy="92.913" r="7.521" clip-path="url(#B)"/><circle cx="151.755" cy="55.763" r="5.104" clip-path="url(#B)"/><circle cx="150.561" cy="74.98" r="5.104" clip-path="url(#B)"/></g></svg>