<svg xmlns="http://www.w3.org/2000/svg" width="512" height="512" fill="#1877d3"><path d="M297.277 508.668l-6.422.96 6.422-.96zm5.12-.875l-3.058.535 3.058-.535zm-17.26 2.547l-7.528.742 7.528-.742zm4.918-.602l-3.6.45 3.6-.45zm19.312-3.338l-2.703.567 2.703-.567zm17.297-4.287l-2.18.606 2.18-.606zm-5.23 1.43l-2.375.617 2.375-.617zm-6.834 1.7l-2.524.566 2.524-.566z"/><path d="M277.527 511.1l-4.047.305 4.047-.305zM512 256C512 114.637 397.363 0 256 0S0 114.637 0 256s114.637 256 256 256l4.5-.06V312.656h-55V248.56h55V201.4c0-54.703 33.395-84.477 82.2-84.477 23.368 0 43.454 1.742 49.3 2.52v57.17h-33.648c-26.547 0-31.688 12.618-31.688 31.13v40.825h63.477l-8.274 64.097h-55.203V502.1C433.668 471.434 512 372.852 512 256z"/><path d="M272.914 511.43l-8.023.398 8.023-.398zm-8.16.406l-4.25.105 4.25-.105z"/></svg>